<?xml version="1.0" encoding="UTF-8" standalone="no"?>
<!-- Created with Inkscape (http://www.inkscape.org/) -->

<svg
   width="8.1680193mm"
   height="12.515233mm"
   viewBox="0 0 8.1680193 12.515233"
   version="1.1"
   id="svg918"
   sodipodi:docname="inventifytext.svg"
   inkscape:version="1.2.1 (9c6d41e410, 2022-07-14)"
   xmlns:inkscape="http://www.inkscape.org/namespaces/inkscape"
   xmlns:sodipodi="http://sodipodi.sourceforge.net/DTD/sodipodi-0.dtd"
   xmlns:xlink="http://www.w3.org/1999/xlink"
   xmlns="http://www.w3.org/2000/svg"
   xmlns:svg="http://www.w3.org/2000/svg">
  <sodipodi:namedview
     id="namedview920"
     pagecolor="#717171"
     bordercolor="#000000"
     borderopacity="0.25"
     inkscape:showpageshadow="2"
     inkscape:pageopacity="0"
     inkscape:pagecheckerboard="0"
     inkscape:deskcolor="#d1d1d1"
     inkscape:document-units="mm"
     showgrid="false"
     showguides="true"
     inkscape:zoom="2.6586982"
     inkscape:cx="237.89838"
     inkscape:cy="23.883869"
     inkscape:window-width="1920"
     inkscape:window-height="1001"
     inkscape:window-x="-9"
     inkscape:window-y="-9"
     inkscape:window-maximized="1"
     inkscape:current-layer="layer1" />
  <defs
     id="defs915">
    <linearGradient
       x1="99.318954"
       y1="118.02716"
       x2="98.780807"
       y2="256.47345"
       gradientUnits="userSpaceOnUse"
       gradientTransform="matrix(0.233317,0,0,0.233317,578.51009,220.30873)"
       spreadMethod="pad"
       id="linearGradient246">
      <stop
         style="stop-opacity:1;stop-color:#fc8362"
         offset="0"
         id="stop240" />
      <stop
         style="stop-opacity:1;stop-color:#db2a47"
         offset="0.5"
         id="stop242" />
      <stop
         style="stop-opacity:1;stop-color:#7937f2"
         offset="1"
         id="stop244" />
    </linearGradient>
    <linearGradient
       inkscape:collect="always"
       xlink:href="#linearGradient246"
       id="linearGradient3164"
       gradientUnits="userSpaceOnUse"
       gradientTransform="matrix(0.233317,0,0,0.233317,578.51009,220.30873)"
       x1="99.318954"
       y1="118.02716"
       x2="98.780807"
       y2="256.47345"
       spreadMethod="pad" />
  </defs>
  <g
     inkscape:label="Layer 1"
     inkscape:groupmode="layer"
     id="layer1"
     transform="translate(-20.048802,-142.50786)">
    <g
       aria-label="INVENTIFY"
       id="text3152"
       style="font-weight:900;font-size:16.4305px;font-family:Montserrat;-inkscape-font-specification:'Montserrat, Heavy';text-align:end;text-anchor:end;fill:#ffffff;stroke-width:0.3;stroke-linecap:round;stroke-linejoin:round" />
    <g
       id="g3162"
       inkscape:export-filename="infotico.png"
       inkscape:export-xdpi="96"
       inkscape:export-ydpi="96"
       transform="matrix(0.34316895,0,0,0.34316895,4.1953405,102.16302)"
       style="stroke-width:2.91401">
      <rect
         style="fill:#ffffff;fill-opacity:0;stroke:none;stroke-width:0.874216;stroke-linecap:round;stroke-linejoin:round;stroke-opacity:1"
         id="rect3154"
         width="37.251995"
         height="37.251995"
         x="39.453247"
         y="117.17446"
         ry="0" />
      <g
         id="g3160"
         transform="matrix(1.1604991,0,0,1.1604991,-640.15627,-169.13666)"
         style="stroke-width:0.885833">
        <g
           id="g3158"
           style="stroke-width:0.885833">
          <path
             style="color:#000000;fill:url(#linearGradient3164);stroke-width:0.885833;stroke-linecap:round;stroke-linejoin:round;-inkscape-stroke:none"
             d="m 601.6875,247.05078 c -3.9267,-0.004 -7.63869,1.7908 -10.07813,4.86328 a 0.79750001,0.79750001 0 0 0 0.12891,1.1211 0.79750001,0.79750001 0 0 0 1.12109,-0.12891 c 2.13815,-2.693 5.38757,-4.26545 8.82813,-4.26172 3.43636,0 6.68625,1.56911 8.82422,4.26563 a 0.79750001,0.79750001 0 0 0 1.12109,0.1289 0.79750001,0.79750001 0 0 0 0.12891,-1.12109 c -2.43962,-3.07697 -6.15136,-4.86659 -10.07227,-4.86719 z m -0.004,2.60547 c -5.65409,0 -10.2539,4.60107 -10.2539,10.25781 0,4.04139 2.37967,7.48887 5.78906,9.15821 v 2.02539 a 0.79757976,0.79757976 0 0 0 0.79687,0.79687 h 7.1836 a 0.79750001,0.79750001 0 0 0 0.79687,-0.79687 0.79750001,0.79750001 0 0 0 -0.79687,-0.79688 h -6.38477 v -1.66797 a 0.79757976,0.79757976 0 0 0 -0.48828,-0.73437 c -3.11475,-1.31254 -5.30078,-4.38583 -5.30078,-7.98438 0,-4.79525 3.8663,-8.66406 8.6582,-8.66406 4.79082,0 8.66016,3.86891 8.66016,8.66406 0,2.62283 -1.16281,4.96452 -2.99805,6.54883 a 0.79757976,0.79757976 0 0 0 -0.002,0.002 c -0.24887,0.21641 -0.43499,0.39105 -0.62305,0.52344 a 0.79757976,0.79757976 0 0 0 -0.0391,0.0293 c -0.0873,0.0698 -0.2618,0.16737 -0.45312,0.26367 -0.82324,0.40613 -1.82878,0.26306 -2.50586,-0.41992 a 0.79757976,0.79757976 0 0 0 0,-0.002 c -0.79713,-0.80303 -0.81657,-1.95185 -0.0742,-2.8457 a 0.79757976,0.79757976 0 0 0 0.004,-0.004 c 0.15725,-0.19163 0.2201,-0.22858 0.39258,-0.3418 0.17248,-0.11322 0.45563,-0.29558 0.76367,-0.61524 a 0.79757976,0.79757976 0 0 0 0.0352,-0.0391 c 0.87603,-1.03984 1.42188,-2.39892 1.42187,-3.74805 0,-0.16099 0.0181,-0.46181 -0.0254,-0.7832 a 0.79757976,0.79757976 0 0 0 -0.79296,-0.68945 l -0.58594,0.002 v -2.27148 a 0.79750001,0.79750001 0 0 0 -0.79883,-0.79883 0.79750001,0.79750001 0 0 0 -0.79688,0.79883 v 2.27539 l -3.38671,0.0117 v -2.28711 a 0.79750001,0.79750001 0 0 0 -0.79688,-0.79883 0.79750001,0.79750001 0 0 0 -0.79687,0.79883 v 2.29101 l -0.47461,0.002 a 0.79757976,0.79757976 0 0 0 -0.78321,0.66015 c -0.0473,0.27225 -0.0625,0.54354 -0.0625,0.78906 0,2.08571 1.20613,4.27963 3.20703,5.08399 a 0.79750001,0.79750001 0 0 0 1.03711,-0.44336 0.79750001,0.79750001 0 0 0 -0.44336,-1.03711 c -1.16323,-0.46762 -2.10059,-2.07648 -2.16406,-3.46094 l 0.48047,-0.002 4.98047,-0.0156 0.5625,-0.002 c -0.0352,0.86224 -0.39669,1.86652 -0.99414,2.58203 -0.17411,0.17544 -0.27905,0.24389 -0.46094,0.36328 -0.19245,0.12634 -0.47667,0.33102 -0.74805,0.66016 -1.21765,1.46615 -1.1909,3.62127 0.16797,4.99023 1.15892,1.16902 2.91895,1.43044 4.34571,0.72657 a 0.79757976,0.79757976 0 0 0 0.004,-0.002 c 0.19321,-0.0971 0.45772,-0.22707 0.72461,-0.4375 0.29504,-0.21163 0.52117,-0.42452 0.72461,-0.60156 2.17276,-1.87569 3.55078,-4.66069 3.55078,-7.75586 0,-5.65684 -4.60268,-10.25781 -10.25586,-10.25781 z m 0,2.46484 c -2.38006,0 -4.63057,1.08793 -6.10937,2.95313 a 0.79750001,0.79750001 0 0 0 0.1289,1.12109 0.79750001,0.79750001 0 0 0 1.1211,-0.1289 c 1.1772,-1.4848 2.96544,-2.35157 4.85937,-2.35157 1.89282,0 3.68271,0.86558 4.85547,2.34571 a 0.79750001,0.79750001 0 0 0 1.1211,0.13086 0.79750001,0.79750001 0 0 0 0.1289,-1.1211 c -1.47523,-1.86187 -3.72629,-2.94922 -6.10547,-2.94922 z m -1.8164,20.32422 a 0.79750001,0.79750001 0 0 0 -0.79688,0.79688 0.79750001,0.79750001 0 0 0 0.79688,0.79687 h 3.3789 a 0.79750001,0.79750001 0 0 0 0.79688,-0.79687 0.79750001,0.79750001 0 0 0 -0.79688,-0.79688 z m -1.85547,2.23438 a 0.79750001,0.79750001 0 0 0 -0.79688,0.79687 0.79750001,0.79750001 0 0 0 0.79688,0.79883 h 7.18359 a 0.79750001,0.79750001 0 0 0 0.79688,-0.79883 0.79750001,0.79750001 0 0 0 -0.79688,-0.79687 z m 1.85547,2.20312 a 0.79750001,0.79750001 0 0 0 -0.79688,0.79688 0.79750001,0.79750001 0 0 0 0.79688,0.79687 h 3.3789 a 0.79750001,0.79750001 0 0 0 0.79688,-0.79687 0.79750001,0.79750001 0 0 0 -0.79688,-0.79688 z"
             id="path3156" />
        </g>
      </g>
    </g>
  </g>
</svg>
